<svg width="400" height="400" viewBox="0 0 400 400" fill="none" xmlns="http://www.w3.org/2000/svg">
<g clip-path="url(#clip0_1_3)">
<g clip-path="url(#clip1_1_3)">
<path d="M200 0C210.376 0 220.568 0.790175 230.518 2.31363L227.657 20.8468C218.64 19.4661 209.403 18.75 200 18.75C190.597 18.75 181.361 19.466 172.344 20.8466L169.483 2.31344C179.433 0.790107 189.624 0 200 0Z" fill="#3B45FD"/>
<path d="M247.462 5.66548L243.013 23.8844C261.288 28.3318 278.475 35.5495 294.11 45.067L303.848 29.0395C286.595 18.5372 267.628 10.5731 247.462 5.66548Z" fill="#3B45FD"/>
<path d="M318.197 38.6478L307.117 53.7745C322.06 64.7398 335.26 77.9405 346.225 92.8838L361.352 81.8028C349.252 65.3135 334.687 50.7473 318.197 38.6478Z" fill="#3B45FD"/>
<path d="M370.96 96.1545L354.933 105.89C364.45 121.525 371.668 138.715 376.115 156.989L394.335 152.539C389.427 132.375 381.463 113.407 370.96 96.1545Z" fill="#3B45FD"/>
<path d="M397.688 169.484L379.152 172.344C380.535 181.361 381.25 190.597 381.25 200C381.25 209.403 380.535 218.64 379.152 227.657L397.688 230.518C399.21 220.568 400 210.376 400 200C400 189.624 399.21 179.433 397.688 169.484Z" fill="#3B45FD"/>
<path d="M354.933 294.113C364.45 278.475 371.668 261.288 376.115 243.013L394.335 247.462C389.427 267.628 381.463 286.595 370.96 303.848L354.933 294.113Z" fill="#3B45FD"/>
<path d="M346.225 307.118L361.352 318.198C349.252 334.688 334.687 349.253 318.197 361.353L307.115 346.225C322.06 335.26 335.26 322.06 346.225 307.118Z" fill="#3B45FD"/>
<path d="M294.11 354.933L303.845 370.96C286.593 381.463 267.625 389.427 247.461 394.335L243.011 376.115C261.285 371.668 278.475 364.45 294.11 354.933Z" fill="#3B45FD"/>
<path d="M227.656 379.152L230.517 397.688C220.567 399.21 210.376 400 200 400C189.624 400 179.432 399.21 169.482 397.688L172.342 379.155C181.356 380.535 190.591 381.25 200 381.25C209.403 381.25 218.639 380.535 227.656 379.152Z" fill="#3B45FD"/>
<path d="M156.986 376.12L152.538 394.335C137.39 390.647 122.918 385.237 109.341 378.32L90.3597 382.75L86.0992 364.49L111.75 358.505L117.852 361.613C130.149 367.878 143.258 372.78 156.986 376.12Z" fill="#3B45FD"/>
<path d="M70.2743 368.182L74.5348 386.442L41.9985 394.033C20.3465 399.085 0.914205 379.652 5.96635 358.002L13.5582 325.465L31.8178 329.725L24.2259 362.262C22.3313 370.382 29.6185 377.667 37.738 375.775L70.2743 368.182Z" fill="#3B45FD"/>
<path d="M35.5102 313.9L17.2507 309.64L21.6797 290.658C14.7631 277.08 9.35168 262.608 5.66513 247.461L23.8798 243.012C27.2197 256.74 32.1225 269.85 38.3867 282.148L41.4955 288.25L35.5102 313.9Z" fill="#3B45FD"/>
<path d="M20.844 227.656L2.3134 230.516C0.790095 220.567 0 210.376 0 200C0 189.624 0.790167 179.432 2.31361 169.482L20.8467 172.343C19.4661 181.361 18.75 190.597 18.75 200C18.75 209.408 19.4653 218.643 20.844 227.656Z" fill="#3B45FD"/>
<path d="M23.8843 156.987L5.66545 152.538C10.573 132.374 18.5372 113.406 29.0395 96.1533L45.067 105.889C35.5495 121.524 28.3318 138.713 23.8843 156.987Z" fill="#3B45FD"/>
<path d="M53.7745 92.8828L38.6478 81.8018C50.7473 65.3125 65.3135 50.7465 81.8028 38.647L92.8838 53.7738C77.9405 64.739 64.7398 77.9395 53.7745 92.8828Z" fill="#3B45FD"/>
<path d="M105.89 45.0665L96.1543 29.0387C113.407 18.5367 132.375 10.5726 152.539 5.66515L156.989 23.884C138.715 28.3315 121.525 35.5487 105.89 45.0665Z" fill="#3B45FD"/>
<path d="M362.5 200C362.5 289.747 289.747 362.5 200 362.5C171.534 362.5 144.777 355.18 121.509 342.32C119.269 341.082 116.655 340.675 114.162 341.255L41.878 358.122L58.7442 285.837C59.3257 283.345 58.9172 280.73 57.6792 278.49C44.8195 255.223 37.5 228.466 37.5 200C37.5 110.254 110.254 37.5 200 37.5C289.747 37.5 362.5 110.254 362.5 200Z" fill="#3B45FD"/>
</g>
</g>
<defs>
<clipPath id="clip0_1_3">
<rect width="400" height="400" fill="white"/>
</clipPath>
<clipPath id="clip1_1_3">
<rect width="400" height="400" fill="white"/>
</clipPath>
</defs>
</svg>
