<svg width="400" height="400" viewBox="0 0 400 400" fill="none" xmlns="http://www.w3.org/2000/svg">
<g clip-path="url(#clip0_1_4)">
<g filter="url(#filter0_f_1_4)">
<path d="M113.654 336.302L119.624 339.824C144.697 354.644 173.444 362.483 202.761 362.497H202.823C292.854 362.497 366.124 289.539 366.162 199.867C366.178 156.413 349.204 115.55 318.364 84.8112C303.239 69.6519 285.244 57.6312 265.422 49.4448C245.6 41.2585 224.345 37.0692 202.887 37.1195C112.786 37.1195 39.5131 110.07 39.481 199.736C39.4366 230.355 48.094 260.361 64.4521 286.285L68.3384 292.436L51.8343 352.444L113.654 336.302ZM4.64865 398.933L32.5311 297.543C15.3353 267.872 6.28864 234.21 6.29932 199.723C6.34473 91.8367 94.4981 4.06673 202.825 4.06673C255.393 4.09333 304.734 24.4677 341.842 61.4521C378.95 98.4366 399.367 147.597 399.349 199.88C399.301 307.758 311.134 395.544 202.823 395.544H202.737C169.849 395.531 137.533 387.314 108.828 371.725L4.64865 398.933Z" fill="#B3B3B3"/>
</g>
<path d="M2.63205 396.922L30.5145 295.532C13.2891 265.789 4.24111 232.048 4.28272 197.712C4.32813 89.8256 92.4814 2.05563 200.809 2.05563C253.376 2.08224 302.718 22.4566 339.826 59.4411C376.934 96.4255 397.351 145.586 397.332 197.869C397.284 305.747 309.117 393.533 200.806 393.533H200.721C167.833 393.52 135.516 385.303 106.811 369.714L2.63205 396.922Z" fill="white"/>
<path d="M200.867 35.1084C110.767 35.1084 37.4938 108.059 37.4617 197.725C37.4173 228.344 46.0746 258.35 62.4328 284.274L66.3191 290.427L49.815 350.436L111.638 334.291L117.607 337.813C142.68 352.633 171.428 360.47 200.745 360.486H200.806C290.837 360.486 364.11 287.528 364.145 197.856C364.213 176.483 360.024 155.308 351.819 135.559C343.615 115.81 331.558 97.8772 316.348 82.8001C301.222 67.6405 283.227 55.6195 263.404 47.4332C243.582 39.2469 222.326 35.0578 200.867 35.1084Z" fill="url(#paint0_linear_1_4)"/>
<path fill-rule="evenodd" clip-rule="evenodd" d="M151.689 115.914C148.009 107.771 144.136 107.606 140.639 107.465L131.227 107.351C127.952 107.351 122.632 108.575 118.134 113.469C113.636 118.364 100.946 130.194 100.946 154.255C100.946 178.317 118.542 201.566 120.994 204.833C123.446 208.1 154.964 259.05 204.877 278.653C246.354 294.944 254.795 291.704 263.801 290.89C272.808 290.076 292.854 279.06 296.943 267.64C301.032 256.22 301.035 246.436 299.809 244.39C298.583 242.344 295.308 241.129 290.394 238.681C285.479 236.234 261.341 224.404 256.841 222.771C252.34 221.137 249.068 220.326 245.791 225.221C242.514 230.116 233.114 241.126 230.248 244.39C227.382 247.654 224.522 248.064 219.607 245.619C214.693 243.174 198.88 238.008 180.119 221.348C165.522 208.385 155.669 192.376 152.8 187.484C149.932 182.591 152.496 179.942 154.959 177.505C157.162 175.313 159.868 171.794 162.328 168.939C164.788 166.085 165.597 164.045 167.232 160.786C168.866 157.527 168.052 154.665 166.823 152.22C165.594 149.775 156.054 125.586 151.689 115.914Z" fill="white"/>
</g>
<defs>
<filter id="filter0_f_1_4" x="-2.41335" y="-2.99527" width="408.824" height="408.991" filterUnits="userSpaceOnUse" color-interpolation-filters="sRGB">
<feFlood flood-opacity="0" result="BackgroundImageFix"/>
<feBlend mode="normal" in="SourceGraphic" in2="BackgroundImageFix" result="shape"/>
<feGaussianBlur stdDeviation="3.531" result="effect1_foregroundBlur_1_4"/>
</filter>
<linearGradient id="paint0_linear_1_4" x1="197.478" y1="54.6341" x2="199.121" y2="332.69" gradientUnits="userSpaceOnUse">
<stop stop-color="#57D163"/>
<stop offset="1" stop-color="#23B33A"/>
</linearGradient>
<clipPath id="clip0_1_4">
<rect width="400" height="400" fill="white"/>
</clipPath>
</defs>
</svg>
